# xmcd CD database file
#
# Track frame offsets:
#	150
#	36235
#	50351
#	78484
#	111164
#	130001
#	161025
#	191048
#
# Disc length: 3097 seconds
#
# Revision: 0
# Processed by: cddbd v1.5.2PL0 Copyright (c) Steve Scherf et al.
# Submitted via: CDex 1.70beta2
#
DISCID=670c1708
DTITLE=Leprous - Live At Rockefeller Music Hall [CD1]
DYEAR=2016
DGENRE=Progressive Metal
TTITLE0=The Flood
TTITLE1=Foe
TTITLE2=Third Law
TTITLE3=Rewind
TTITLE4=The Cloak
TTITLE5=Acquired Taste
TTITLE6=Red
TTITLE7=Slave
EXTD=YEAR: 2016
EXTT0=
EXTT1=
EXTT2=
EXTT3=
EXTT4=
EXTT5=
EXTT6=
EXTT7=
PLAYORDER=
